<svg width="192" height="93" viewBox="0 0 192 93" fill="none" xmlns="http://www.w3.org/2000/svg">
<path fill-rule="evenodd" clip-rule="evenodd" d="M0 0L26.2003 92.7273H49.0199L63.7702 39.5648L63.5 40.5L53.5867 9.76865L39.4212 65.1989H38.576L22.2763 0H0ZM57.16 0L66.0534 31.3357L66.4062 30.0639H67.674L85.0604 92.7273H107.82L134.08 0H111.744L95.6854 64.8366H94.7798L78.1179 0H57.16Z" fill="#6D28D9"/>
<path d="M83.3658 92.7273L57.1655 0H79.4418L95.7415 65.1989H96.5867L113.249 0H135.283L151.945 64.8366H152.851L168.909 0H191.246L164.985 92.7273H142.226L124.84 30.0639H123.572L106.185 92.7273H83.3658Z" fill="#BEB1F6"/>
</svg>
